<svg width="32" height="32" viewBox="0 0 32 32" fill="none" xmlns="http://www.w3.org/2000/svg">
<mask id="mask0_102_109957" style="mask-type:alpha" maskUnits="userSpaceOnUse" x="4" y="4" width="24" height="24">
<rect x="4" y="4" width="24" height="24" fill="#D9D9D9"/>
</mask>
<g mask="url(#mask0_102_109957)">
<path d="M7.99982 25C7.44982 25 6.97915 24.8043 6.58782 24.413C6.19582 24.021 5.99982 23.55 5.99982 23V12C5.99982 11.45 6.19582 10.9793 6.58782 10.588C6.97915 10.196 7.44982 10 7.99982 10H11.9998V8C11.9998 7.45 12.1958 6.979 12.5878 6.587C12.9792 6.19567 13.4498 6 13.9998 6H17.9998C18.5498 6 19.0208 6.19567 19.4128 6.587C19.8042 6.979 19.9998 7.45 19.9998 8V10H23.9998C24.5498 10 25.0208 10.196 25.4128 10.588C25.8041 10.9793 25.9998 11.45 25.9998 12V23C25.9998 23.55 25.8041 24.021 25.4128 24.413C25.0208 24.8043 24.5498 25 23.9998 25H7.99982ZM7.99982 23H23.9998V12H7.99982V23ZM13.9998 10H17.9998V8H13.9998V10Z" fill="#1A1E25"/>
</g>
</svg>
