<svg width="46" height="45" viewBox="0 0 46 45" fill="none" xmlns="http://www.w3.org/2000/svg">
<mask id="mask0_102_109947" style="mask-type:alpha" maskUnits="userSpaceOnUse" x="0" y="0" width="46" height="45">
<rect x="0.5" width="45" height="45" fill="#D9D9D9"/>
</mask>
<g mask="url(#mask0_102_109947)">
<path d="M14.5625 11.25C13.7812 11.25 13.1175 11.5238 12.5713 12.0713C12.0238 12.6175 11.75 13.2812 11.75 14.0625C11.75 14.8438 12.0238 15.5075 12.5713 16.0538C13.1175 16.6013 13.7812 16.875 14.5625 16.875C15.3438 16.875 16.0075 16.6013 16.5538 16.0538C17.1013 15.5075 17.375 14.8438 17.375 14.0625C17.375 13.2812 17.1013 12.6175 16.5538 12.0713C16.0075 11.5238 15.3438 11.25 14.5625 11.25ZM14.5625 30C13.7812 30 13.1175 30.2738 12.5713 30.8212C12.0238 31.3675 11.75 32.0312 11.75 32.8125C11.75 33.5938 12.0238 34.2575 12.5713 34.8038C13.1175 35.3512 13.7812 35.625 14.5625 35.625C15.3438 35.625 16.0075 35.3512 16.5538 34.8038C17.1013 34.2575 17.375 33.5938 17.375 32.8125C17.375 32.0312 17.1013 31.3675 16.5538 30.8212C16.0075 30.2738 15.3438 30 14.5625 30ZM8 5.625H38C38.5312 5.625 38.9762 5.80437 39.335 6.16312C39.695 6.52312 39.875 6.96875 39.875 7.5V20.625C39.875 21.1562 39.695 21.6012 39.335 21.96C38.9762 22.32 38.5312 22.5 38 22.5H8C7.46875 22.5 7.02375 22.32 6.665 21.96C6.305 21.6012 6.125 21.1562 6.125 20.625V7.5C6.125 6.96875 6.305 6.52312 6.665 6.16312C7.02375 5.80437 7.46875 5.625 8 5.625ZM9.875 9.375V18.75H36.125V9.375H9.875ZM8 24.375H38C38.5312 24.375 38.9762 24.5544 39.335 24.9131C39.695 25.2731 39.875 25.7188 39.875 26.25V39.375C39.875 39.9062 39.695 40.3512 39.335 40.71C38.9762 41.07 38.5312 41.25 38 41.25H8C7.46875 41.25 7.02375 41.07 6.665 40.71C6.305 40.3512 6.125 39.9062 6.125 39.375V26.25C6.125 25.7188 6.305 25.2731 6.665 24.9131C7.02375 24.5544 7.46875 24.375 8 24.375ZM9.875 28.125V37.5H36.125V28.125H9.875Z" fill="#1C1B1F"/>
</g>
</svg>
