<svg width="45" height="45" viewBox="0 0 45 45" fill="none" xmlns="http://www.w3.org/2000/svg">
<mask id="mask0_102_109905" style="mask-type:alpha" maskUnits="userSpaceOnUse" x="0" y="0" width="45" height="45">
<rect width="45" height="45" fill="#D9D9D9"/>
</mask>
<g mask="url(#mask0_102_109905)">
<path d="M16.875 26.7188C16.2188 26.7188 15.6644 26.4919 15.2119 26.0381C14.7581 25.5856 14.5312 25.0312 14.5312 24.375C14.5312 23.7188 14.7581 23.1644 15.2119 22.7119C15.6644 22.2581 16.2188 22.0312 16.875 22.0312C17.5312 22.0312 18.0856 22.2581 18.5381 22.7119C18.9919 23.1644 19.2188 23.7188 19.2188 24.375C19.2188 25.0312 18.9919 25.5856 18.5381 26.0381C18.0856 26.4919 17.5312 26.7188 16.875 26.7188ZM28.125 26.7188C27.4688 26.7188 26.9144 26.4919 26.4619 26.0381C26.0081 25.5856 25.7812 25.0312 25.7812 24.375C25.7812 23.7188 26.0081 23.1644 26.4619 22.7119C26.9144 22.2581 27.4688 22.0312 28.125 22.0312C28.7812 22.0312 29.3356 22.2581 29.7881 22.7119C30.2419 23.1644 30.4688 23.7188 30.4688 24.375C30.4688 25.0312 30.2419 25.5856 29.7881 26.0381C29.3356 26.4919 28.7812 26.7188 28.125 26.7188ZM22.5 37.5C26.6875 37.5 30.2344 36.0469 33.1406 33.1406C36.0469 30.2344 37.5 26.6875 37.5 22.5C37.5 21.75 37.4531 21.0231 37.3594 20.3194C37.2656 19.6169 37.0938 18.9375 36.8438 18.2812C36.1875 18.4375 35.5312 18.555 34.875 18.6337C34.2188 18.7112 33.5312 18.75 32.8125 18.75C29.9688 18.75 27.2812 18.1406 24.75 16.9219C22.2188 15.7031 20.0625 14 18.2812 11.8125C17.2812 14.25 15.8519 16.3675 13.9931 18.165C12.1331 19.9613 9.96875 21.3125 7.5 22.2188V22.5C7.5 26.6875 8.95312 30.2344 11.8594 33.1406C14.7656 36.0469 18.3125 37.5 22.5 37.5ZM22.5 41.25C19.9062 41.25 17.4688 40.7575 15.1875 39.7725C12.9063 38.7887 10.9219 37.4531 9.23438 35.7656C7.54688 34.0781 6.21125 32.0938 5.2275 29.8125C4.2425 27.5312 3.75 25.0938 3.75 22.5C3.75 19.9062 4.2425 17.4688 5.2275 15.1875C6.21125 12.9063 7.54688 10.9219 9.23438 9.23438C10.9219 7.54688 12.9063 6.21062 15.1875 5.22562C17.4688 4.24187 19.9062 3.75 22.5 3.75C25.0938 3.75 27.5312 4.24187 29.8125 5.22562C32.0938 6.21062 34.0781 7.54688 35.7656 9.23438C37.4531 10.9219 38.7887 12.9063 39.7725 15.1875C40.7575 17.4688 41.25 19.9062 41.25 22.5C41.25 25.0938 40.7575 27.5312 39.7725 29.8125C38.7887 32.0938 37.4531 34.0781 35.7656 35.7656C34.0781 37.4531 32.0938 38.7887 29.8125 39.7725C27.5312 40.7575 25.0938 41.25 22.5 41.25ZM19.9688 7.73438C21.2812 9.92188 23.0625 11.68 25.3125 13.0087C27.5625 14.3363 30.0625 15 32.8125 15C33.25 15 33.6719 14.9769 34.0781 14.9306C34.4844 14.8831 34.9062 14.8281 35.3438 14.7656C34.0312 12.5781 32.25 10.82 30 9.49125C27.75 8.16375 25.25 7.5 22.5 7.5C22.0625 7.5 21.6406 7.52313 21.2344 7.56938C20.8281 7.61688 20.4062 7.67188 19.9688 7.73438ZM8.29688 17.7656C9.89063 16.8594 11.2812 15.6875 12.4688 14.25C13.6562 12.8125 14.5469 11.2031 15.1406 9.42188C13.5469 10.3281 12.1562 11.5 10.9688 12.9375C9.78125 14.375 8.89063 15.9844 8.29688 17.7656Z" fill="#1C1B1F"/>
</g>
</svg>
