<svg width="50" height="47" viewBox="0 0 50 47" fill="none" xmlns="http://www.w3.org/2000/svg">
<path d="M2.05044 0C0.696903 0 -0.0303694 0.172738 -6.64183e-05 0.18798C1.97468 1.10248 3.54034 2.51486 3.54034 2.51486C7.92923 5.61907 12.106 14.1798 14.308 22.456C17.1161 33.0235 21.2979 40.4664 27.8888 47L40.8383 42.5393L45.9999 46.3192C47.5403 45.0288 48.7373 43.7739 49.9949 42.2091L44.106 38.7035L49.207 26.4848C49.0252 26.4848 48.8434 26.4899 48.6615 26.4899C39.0908 26.4899 32.2474 20.6066 24.909 13.3008C18.8333 7.26008 10.909 1.35142 5.81307 0.38104C4.27771 0.0863691 3.00498 0 2.05044 0ZM7.75246 3.35315L7.22721 2.75873L8.85852 2.43357L7.75751 3.35315H7.75246ZM9.42923 5.55302L8.75751 4.61312L10.9191 4.11015L9.42923 5.54794V5.55302ZM10.9999 7.78846L10.2676 6.57421L13.4141 5.79181L11.005 7.78846H10.9999ZM12.6363 10.9028L11.7575 9.15512L15.8282 8.05264L12.6363 10.9028ZM14.1514 14.3322L13.1767 12.0612L18.3484 11.0349L14.1514 14.3322ZM15.6565 18.4525C15.3383 17.477 14.9848 16.4863 14.606 15.4905L21.1009 14.4185L15.6565 18.4525ZM17.0302 23.1266L16.6666 21.8412L16.0504 19.6769L24.1312 17.98L17.0353 23.1266H17.0302ZM18.6464 27.8312C18.1413 26.5509 17.6767 25.2401 17.2626 23.8988L27.0353 21.6888L18.6464 27.8312ZM21.2929 33.5417C20.4999 32.0683 19.7676 30.534 19.1009 28.9438L31.3333 25.6922L21.2929 33.5417ZM24.8282 39.2674C23.803 37.8144 22.8333 36.2852 21.9242 34.6899L36.9191 29.2181L24.8282 39.2674ZM29.7424 45.2726C28.2222 43.6621 26.7626 41.9144 25.3939 40.0448L42.2626 32.3884L29.7424 45.2777V45.2726Z" fill="white"/>
</svg>
