<svg width="22" height="22" viewBox="0 0 22 22" fill="none" xmlns="http://www.w3.org/2000/svg">
<g clip-path="url(#clip0_102_98951)">
<path d="M20.9028 9.10807C21.0252 9.81282 21.0863 10.5269 21.0853 11.2422C21.0853 14.4368 19.9434 17.1379 17.9563 18.9663H17.9589C16.2211 20.5714 13.8324 21.5007 11 21.5007C8.21523 21.5007 5.54451 20.3944 3.57538 18.4253C1.60625 16.4562 0.5 13.7855 0.5 11.0007C0.5 8.21592 1.60625 5.5452 3.57538 3.57607C5.54451 1.60694 8.21523 0.500693 11 0.500693C13.6065 0.470166 16.1238 1.44941 18.0245 3.23332L15.0268 6.23107C13.9431 5.1981 12.4969 4.63243 11 4.65607C8.26081 4.65607 5.93375 6.50407 5.10425 8.99257C4.66444 10.2965 4.66444 11.7088 5.10425 13.0128H5.10819C5.94163 15.4973 8.26475 17.3453 11.0039 17.3453C12.4188 17.3453 13.6342 16.9831 14.5766 16.3426H14.5726C15.1198 15.9801 15.5879 15.5104 15.9486 14.9621C16.3093 14.4137 16.5551 13.7979 16.6713 13.1519H11V9.10938H20.9028V9.10807Z" fill="#F2F2F3"/>
</g>
<defs>
<clipPath id="clip0_102_98951">
<rect width="21" height="21" fill="white" transform="translate(0.5 0.5)"/>
</clipPath>
</defs>
</svg>
