<svg width="50" height="50" viewBox="0 0 50 50" fill="none" xmlns="http://www.w3.org/2000/svg">
<path d="M41.25 0H8.75C3.91751 0 0 3.91751 0 8.75V41.25C0 46.0825 3.91751 50 8.75 50H41.25C46.0825 50 50 46.0825 50 41.25V8.75C50 3.91751 46.0825 0 41.25 0Z" fill="#2E0501"/>
<path d="M25.4152 30.5298H17.8919L16.0111 36.239C15.9895 36.413 15.8706 36.5 15.6544 36.5H12.2494C12.0333 36.5 11.9576 36.3913 12.0225 36.1738L18.7675 16.795C18.9188 16.4688 19.0161 15.8598 19.0593 14.9681C19.0593 14.8376 19.135 14.7723 19.2863 14.7723H23.9559C24.064 14.7723 24.1505 14.8267 24.2153 14.9355L31.7386 36.2064C31.8035 36.4021 31.7386 36.5 31.5441 36.5H27.7176C27.5662 36.5 27.4581 36.4239 27.3933 36.2716L25.4152 30.5298ZM18.735 27.3652H24.5721C24.4856 27.0608 24.0316 25.6797 23.2101 23.222C22.4102 20.7426 21.8805 19.0461 21.6211 18.1326H21.5887C21.3293 19.2418 20.378 22.3194 18.735 27.3652Z" fill="#F2A032"/>
<path d="M33.7519 36.2064V20.873C33.7519 20.6991 33.8384 20.6121 34.0114 20.6121H37.6109C37.7838 20.6121 37.8703 20.6991 37.8703 20.873V36.239C37.8703 36.413 37.7838 36.5 37.6109 36.5H34.0438C33.8492 36.5 33.7519 36.4021 33.7519 36.2064ZM37.4163 17.317C37.0272 17.7085 36.4975 17.9043 35.8273 17.9043C35.1572 17.9043 34.6275 17.7085 34.2384 17.317C33.8492 16.9255 33.6547 16.3927 33.6547 15.7184C33.6547 15.066 33.86 14.5331 34.2708 14.1199C34.6815 13.7066 35.2112 13.5 35.8598 13.5C36.5083 13.5 37.0272 13.7066 37.4163 14.1199C37.8054 14.5331 38 15.066 38 15.7184C38 16.3927 37.8054 16.9255 37.4163 17.317Z" fill="#F2A032"/>
</svg>
