<svg width="49" height="50" viewBox="0 0 49 50" fill="none" xmlns="http://www.w3.org/2000/svg">
<circle cx="24.5" cy="25" r="24.5" fill="#1A1E25"/>
<path d="M26.75 34.17C27.75 34.17 28.63 33.9 29.39 33.36C30.17 32.82 30.56 32.01 30.56 30.93C30.56 29.83 30.14 28.99 29.3 28.41C28.48 27.83 27.3 27.33 25.76 26.91C24.24 26.47 23.13 26.09 22.43 25.77C21.75 25.45 21.1 25.03 20.48 24.51C19.24 23.47 18.62 21.86 18.62 19.68C18.62 17.9 19.25 16.37 20.51 15.09C21.79 13.81 23.53 13.17 25.73 13.17C26.79 13.17 27.89 13.33 29.03 13.65C30.19 13.95 30.91 14.1 31.19 14.1C31.47 14.1 31.72 13.9 31.94 13.5H32.27L32.48 19.56H32C31.04 17.82 30.03 16.43 28.97 15.39C27.93 14.33 26.79 13.8 25.55 13.8C24.33 13.8 23.38 14.09 22.7 14.67C22.02 15.23 21.68 15.99 21.68 16.95C21.68 17.89 22.08 18.62 22.88 19.14C23.7 19.64 24.7 20.05 25.88 20.37C27.06 20.69 27.83 20.91 28.19 21.03C28.57 21.15 29.03 21.32 29.57 21.54C30.13 21.74 30.58 21.96 30.92 22.2C31.28 22.42 31.65 22.71 32.03 23.07C32.43 23.41 32.74 23.79 32.96 24.21C33.5 25.17 33.77 26.31 33.77 27.63C33.77 29.79 33.09 31.53 31.73 32.85C30.39 34.15 28.62 34.8 26.42 34.8C25.28 34.8 23.97 34.65 22.49 34.35C21.03 34.05 20.22 33.9 20.06 33.9C19.78 33.9 19.51 34.2 19.25 34.8H18.83L18.53 27.66H19.04C19.92 29.4 21.04 30.92 22.4 32.22C23.78 33.52 25.23 34.17 26.75 34.17Z" fill="white"/>
</svg>
