<svg width="34" height="32" viewBox="0 0 34 32" fill="none" xmlns="http://www.w3.org/2000/svg">
<mask id="mask0_102_109963" style="mask-type:alpha" maskUnits="userSpaceOnUse" x="5" y="4" width="24" height="24">
<rect x="5" y="4" width="24" height="24" fill="#D9D9D9"/>
</mask>
<g mask="url(#mask0_102_109963)">
<path d="M12 27C11.45 27 10.9793 26.8043 10.588 26.413C10.196 26.021 10 25.55 10 25V7C10 6.45 10.196 5.979 10.588 5.587C10.9793 5.19567 11.45 5 12 5H22C22.55 5 23.021 5.19567 23.413 5.587C23.8043 5.979 24 6.45 24 7V25C24 25.55 23.8043 26.021 23.413 26.413C23.021 26.8043 22.55 27 22 27H12ZM12 24V25H22V24H12ZM12 22H22V10H12V22ZM12 8H22V7H12V8Z" fill="#1C1B1F"/>
</g>
</svg>
