<svg width="46" height="45" viewBox="0 0 46 45" fill="none" xmlns="http://www.w3.org/2000/svg">
<mask id="mask0_102_109911" style="mask-type:alpha" maskUnits="userSpaceOnUse" x="0" y="0" width="46" height="45">
<rect x="0.5" width="45" height="45" fill="#D9D9D9"/>
</mask>
<g mask="url(#mask0_102_109911)">
<path d="M17.375 5.625V1.875H28.625V5.625H17.375ZM21.125 26.25H24.875V15H21.125V26.25ZM23 41.25C20.6875 41.25 18.5075 40.805 16.46 39.915C14.4137 39.0238 12.625 37.8125 11.0938 36.2812C9.5625 34.75 8.35125 32.9613 7.46 30.915C6.57 28.8675 6.125 26.6875 6.125 24.375C6.125 22.0625 6.57 19.8825 7.46 17.835C8.35125 15.7887 9.5625 14 11.0938 12.4688C12.625 10.9375 14.4137 9.72687 16.46 8.83687C18.5075 7.94562 20.6875 7.5 23 7.5C24.9375 7.5 26.7969 7.8125 28.5781 8.4375C30.3594 9.0625 32.0312 9.96875 33.5938 11.1562L36.2187 8.53125L38.8438 11.1562L36.2187 13.7812C37.4062 15.3438 38.3125 17.0156 38.9375 18.7969C39.5625 20.5781 39.875 22.4375 39.875 24.375C39.875 26.6875 39.43 28.8675 38.54 30.915C37.6488 32.9613 36.4375 34.75 34.9062 36.2812C33.375 37.8125 31.5863 39.0238 29.54 39.915C27.4925 40.805 25.3125 41.25 23 41.25ZM23 37.5C26.625 37.5 29.7188 36.2188 32.2813 33.6563C34.8438 31.0938 36.125 28 36.125 24.375C36.125 20.75 34.8438 17.6562 32.2813 15.0938C29.7188 12.5312 26.625 11.25 23 11.25C19.375 11.25 16.2812 12.5312 13.7188 15.0938C11.1563 17.6562 9.875 20.75 9.875 24.375C9.875 28 11.1563 31.0938 13.7188 33.6563C16.2812 36.2188 19.375 37.5 23 37.5Z" fill="#1C1B1F"/>
</g>
</svg>
