<svg width="24" height="24" viewBox="0 0 24 24" fill="none" xmlns="http://www.w3.org/2000/svg">
<path d="M0.75 5.0625V18.9375H7.4535C8.0745 18.9375 12.351 18.8115 12.351 14.9062C12.351 12.4658 10.6725 11.6363 9.8205 11.3903C10.4475 11.0948 11.6955 10.3912 11.6955 8.508C11.6955 7.45875 11.5455 5.0625 7.266 5.0625H0.75ZM16.0312 6.35175V7.617H21.2108V6.3525L16.0312 6.35175ZM3.7965 7.4295H6.65625C6.92625 7.4295 8.742 7.28625 8.742 9.02325C8.742 10.5083 7.4295 10.6642 6.89025 10.6642H3.798L3.7965 7.4295ZM18.75 8.76525C14.8328 8.76525 14.0153 12.1673 14.0153 13.6403C14.0153 18.015 17.6017 18.5153 18.75 18.5153C21.8468 18.5153 22.725 16.512 23.0858 15.3983H20.8358C20.748 15.6855 20.0917 16.617 18.8438 16.617C16.7512 16.617 16.5705 14.982 16.5705 14.25H23.2267C23.3617 11.7188 22.254 8.76525 18.75 8.76525ZM18.6795 10.6642C19.3035 10.6642 19.8075 10.8458 20.1097 11.1795C20.4112 11.517 20.634 12.009 20.6947 12.6562H16.5697C16.5817 12.4777 16.623 12.2723 16.6875 12.0465C16.752 11.8155 16.8517 11.5958 17.016 11.3903C17.1795 11.1885 17.4082 11.013 17.6722 10.875C17.9415 10.734 18.2752 10.6642 18.6795 10.6642ZM3.79725 12.75H7.10175C7.758 12.75 9.3045 12.8527 9.3045 14.742C9.3045 16.5735 7.35675 16.5705 7.0545 16.5705H3.7965L3.79725 12.75Z" fill="#F2F2F3"/>
</svg>
