<svg width="33" height="32" viewBox="0 0 33 32" fill="none" xmlns="http://www.w3.org/2000/svg">
<mask id="mask0_102_109969" style="mask-type:alpha" maskUnits="userSpaceOnUse" x="4" y="4" width="24" height="24">
<rect x="4" y="4" width="24" height="24" fill="#D9D9D9"/>
</mask>
<g mask="url(#mask0_102_109969)">
<path d="M9.28125 26C8.71406 26 8.22834 25.8043 7.82409 25.413C7.42053 25.021 7.21875 24.55 7.21875 24V10C7.21875 9.45 7.42053 8.97933 7.82409 8.588C8.22834 8.196 8.71406 8 9.28125 8H10.3125V6H12.375V8H20.625V6H22.6875V8H23.7188C24.2859 8 24.7717 8.196 25.1759 8.588C25.5795 8.97933 25.7812 9.45 25.7812 10V24C25.7812 24.55 25.5795 25.021 25.1759 25.413C24.7717 25.8043 24.2859 26 23.7188 26H9.28125ZM9.28125 24H23.7188V14H9.28125V24ZM9.28125 12H23.7188V10H9.28125V12ZM16.5 18C16.2078 18 15.9631 17.904 15.7657 17.712C15.5677 17.5207 15.4688 17.2833 15.4688 17C15.4688 16.7167 15.5677 16.479 15.7657 16.287C15.9631 16.0957 16.2078 16 16.5 16C16.7922 16 17.0373 16.0957 17.2353 16.287C17.4326 16.479 17.5312 16.7167 17.5312 17C17.5312 17.2833 17.4326 17.5207 17.2353 17.712C17.0373 17.904 16.7922 18 16.5 18ZM12.375 18C12.0828 18 11.8377 17.904 11.6397 17.712C11.4424 17.5207 11.3438 17.2833 11.3438 17C11.3438 16.7167 11.4424 16.479 11.6397 16.287C11.8377 16.0957 12.0828 16 12.375 16C12.6672 16 12.9123 16.0957 13.1103 16.287C13.3076 16.479 13.4062 16.7167 13.4062 17C13.4062 17.2833 13.3076 17.5207 13.1103 17.712C12.9123 17.904 12.6672 18 12.375 18ZM20.625 18C20.3328 18 20.0881 17.904 19.8907 17.712C19.6927 17.5207 19.5938 17.2833 19.5938 17C19.5938 16.7167 19.6927 16.479 19.8907 16.287C20.0881 16.0957 20.3328 16 20.625 16C20.9172 16 21.1619 16.0957 21.3593 16.287C21.5573 16.479 21.6562 16.7167 21.6562 17C21.6562 17.2833 21.5573 17.5207 21.3593 17.712C21.1619 17.904 20.9172 18 20.625 18ZM16.5 22C16.2078 22 15.9631 21.904 15.7657 21.712C15.5677 21.5207 15.4688 21.2833 15.4688 21C15.4688 20.7167 15.5677 20.4793 15.7657 20.288C15.9631 20.096 16.2078 20 16.5 20C16.7922 20 17.0373 20.096 17.2353 20.288C17.4326 20.4793 17.5312 20.7167 17.5312 21C17.5312 21.2833 17.4326 21.5207 17.2353 21.712C17.0373 21.904 16.7922 22 16.5 22ZM12.375 22C12.0828 22 11.8377 21.904 11.6397 21.712C11.4424 21.5207 11.3438 21.2833 11.3438 21C11.3438 20.7167 11.4424 20.4793 11.6397 20.288C11.8377 20.096 12.0828 20 12.375 20C12.6672 20 12.9123 20.096 13.1103 20.288C13.3076 20.4793 13.4062 20.7167 13.4062 21C13.4062 21.2833 13.3076 21.5207 13.1103 21.712C12.9123 21.904 12.6672 22 12.375 22ZM20.625 22C20.3328 22 20.0881 21.904 19.8907 21.712C19.6927 21.5207 19.5938 21.2833 19.5938 21C19.5938 20.7167 19.6927 20.4793 19.8907 20.288C20.0881 20.096 20.3328 20 20.625 20C20.9172 20 21.1619 20.096 21.3593 20.288C21.5573 20.4793 21.6562 20.7167 21.6562 21C21.6562 21.2833 21.5573 21.5207 21.3593 21.712C21.1619 21.904 20.9172 22 20.625 22Z" fill="#1C1B1F"/>
</g>
</svg>
