<svg width="50" height="50" viewBox="0 0 50 50" fill="none" xmlns="http://www.w3.org/2000/svg">
<g clip-path="url(#clip0_102_109928)">
<path d="M8.85417 4.03008e-06H41.1458C42.3089 -0.00112026 43.4607 0.233004 44.5355 0.688979C45.6102 1.14495 46.5867 1.81383 47.4091 2.65732C48.2315 3.50081 48.8837 4.50236 49.3283 5.60465C49.7728 6.70694 50.0011 7.88832 50 9.0812V40.9188C50.0011 42.1117 49.7728 43.2931 49.3283 44.3954C48.8837 45.4976 48.2315 46.4992 47.4091 47.3427C46.5867 48.1862 45.6102 48.855 44.5355 49.311C43.4607 49.767 42.3089 50.0011 41.1458 50H8.85417C7.69112 50.0011 6.53926 49.767 5.46453 49.311C4.3898 48.855 3.41329 48.1862 2.59088 47.3427C1.76848 46.4992 1.11633 45.4976 0.671755 44.3954C0.227179 43.2931 -0.00109226 42.1117 3.92932e-06 40.9188V9.0812C-0.00109226 7.88832 0.227179 6.70694 0.671755 5.60465C1.11633 4.50236 1.76848 3.50081 2.59088 2.65732C3.41329 1.81383 4.3898 1.14495 5.46453 0.688979C6.53926 0.233004 7.69112 -0.00112026 8.85417 4.03008e-06Z" fill="#000B1D"/>
<path d="M20.2084 40.2507C23.0849 40.2507 25.4168 37.9188 25.4168 35.0423V29.834H20.2084C17.3319 29.834 15.0001 32.1658 15.0001 35.0423C15.0001 37.9188 17.3319 40.2507 20.2084 40.2507Z" fill="#0ACF83"/>
<path d="M15.0001 24.6243C15.0001 21.7479 17.3319 19.416 20.2084 19.416H25.4168V29.8327H20.2084C17.3319 29.8327 15.0001 27.5008 15.0001 24.6243Z" fill="#A259FF"/>
<path d="M15.0001 14.2083C15.0001 11.3318 17.3319 9 20.2084 9H25.4168V19.4167H20.2084C17.3319 19.4167 15.0001 17.0848 15.0001 14.2083Z" fill="#F24E1E"/>
<path d="M25.4168 9H30.6251C33.5016 9 35.8334 11.3318 35.8334 14.2083C35.8334 17.0848 33.5016 19.4167 30.6251 19.4167H25.4168V9Z" fill="#FF7262"/>
<path d="M35.8334 24.6243C35.8334 27.5008 33.5016 29.8327 30.6251 29.8327C27.7486 29.8327 25.4168 27.5008 25.4168 24.6243C25.4168 21.7479 27.7486 19.416 30.6251 19.416C33.5016 19.416 35.8334 21.7479 35.8334 24.6243Z" fill="#1ABCFE"/>
</g>
<defs>
<clipPath id="clip0_102_109928">
<rect width="50" height="50" fill="white"/>
</clipPath>
</defs>
</svg>
