<svg width="45" height="45" viewBox="0 0 45 45" fill="none" xmlns="http://www.w3.org/2000/svg">
<mask id="mask0_102_109917" style="mask-type:alpha" maskUnits="userSpaceOnUse" x="0" y="0" width="45" height="45">
<rect width="45" height="45" fill="#D9D9D9"/>
</mask>
<g mask="url(#mask0_102_109917)">
<path d="M5.625 39.375C5.375 39.375 5.13313 39.3206 4.89937 39.2119C4.66437 39.1019 4.46875 38.9688 4.3125 38.8125C3.9375 38.4688 3.75 38.0394 3.75 37.5244C3.75 37.0081 3.92188 36.5625 4.26563 36.1875C4.85938 35.5625 5.57062 35.1875 6.39937 35.0625C7.22687 34.9375 8.0625 34.9531 8.90625 35.1094C9.15625 35.1719 9.39062 35.2344 9.60938 35.2969C9.82812 35.3594 10.0156 35.3125 10.1719 35.1562C10.3594 34.9688 10.4294 34.7344 10.3819 34.4531C10.3356 34.1719 10.2812 33.9062 10.2188 33.6563C10.0938 32.8125 10.0781 31.9762 10.1719 31.1475C10.2656 30.32 10.6094 29.5938 11.2031 28.9688C11.7969 28.3438 12.5081 27.9688 13.3369 27.8438C14.1644 27.7188 15 27.7344 15.8438 27.8906C16.0938 27.9531 16.3363 28.0156 16.5713 28.0781C16.805 28.1406 17 28.0938 17.1562 27.9375C17.3437 27.75 17.4062 27.5156 17.3438 27.2344C17.2812 26.9531 17.2187 26.6875 17.1562 26.4375C17.0312 25.5938 17.0156 24.7575 17.1094 23.9288C17.2031 23.1013 17.5469 22.375 18.1406 21.75C18.7344 21.125 19.445 20.75 20.2725 20.625C21.1013 20.5 21.9375 20.5156 22.7812 20.6719C23.0312 20.7344 23.2738 20.7969 23.5088 20.8594C23.7425 20.9219 23.9375 20.875 24.0938 20.7188C24.2812 20.5312 24.3438 20.2969 24.2812 20.0156C24.2188 19.7344 24.1562 19.4688 24.0938 19.2188C23.9688 18.375 23.9613 17.5387 24.0713 16.71C24.18 15.8825 24.5312 15.1562 25.125 14.5312C25.7188 13.9062 26.43 13.5312 27.2588 13.4062C28.0863 13.2812 28.9219 13.2969 29.7656 13.4531C30.0156 13.5156 30.2575 13.5781 30.4912 13.6406C30.7262 13.7031 30.9219 13.6562 31.0781 13.5C31.2656 13.3125 31.3281 13.0781 31.2656 12.7969C31.2031 12.5156 31.1406 12.25 31.0781 12C30.9531 11.1562 30.945 10.32 31.0538 9.49125C31.1638 8.66375 31.5156 7.9375 32.1094 7.3125C32.7031 6.6875 33.4144 6.3125 34.2431 6.1875C35.0706 6.0625 35.9062 6.07812 36.75 6.23438C37 6.29688 37.2425 6.35125 37.4775 6.3975C37.7113 6.445 37.9062 6.39062 38.0625 6.23438C38.4062 5.85938 38.8363 5.67188 39.3525 5.67188C39.8675 5.67188 40.3125 5.84375 40.6875 6.1875C41.0625 6.53125 41.25 6.96063 41.25 7.47563C41.25 7.99188 41.0781 8.4375 40.7344 8.8125C40.1406 9.4375 39.4294 9.82 38.6006 9.96C37.7731 10.1012 36.9375 10.0938 36.0938 9.9375C35.8438 9.875 35.6019 9.8125 35.3681 9.75C35.1331 9.6875 34.9375 9.73438 34.7812 9.89062C34.5938 10.0781 34.5312 10.3125 34.5938 10.5938C34.6562 10.875 34.7188 11.1406 34.7812 11.3906C34.9062 12.2344 34.9137 13.07 34.8037 13.8975C34.695 14.7262 34.3438 15.4531 33.75 16.0781C33.1562 16.7031 32.4456 17.0781 31.6181 17.2031C30.7894 17.3281 29.9531 17.3125 29.1094 17.1562C28.8594 17.0937 28.625 17.0312 28.4062 16.9688C28.1875 16.9062 28 16.9531 27.8438 17.1094C27.6562 17.2969 27.5862 17.5312 27.6337 17.8125C27.68 18.0938 27.7344 18.3594 27.7969 18.6094C27.9219 19.4531 27.9375 20.2888 27.8438 21.1163C27.75 21.945 27.4062 22.6719 26.8125 23.2969C26.2188 23.8906 25.5081 24.2575 24.6806 24.3975C23.8519 24.5388 23.0156 24.5312 22.1719 24.375C21.9219 24.3125 21.6875 24.2575 21.4688 24.21C21.25 24.1637 21.0625 24.2188 20.9062 24.375C20.7188 24.5625 20.6488 24.7888 20.6963 25.0538C20.7425 25.32 20.7969 25.5781 20.8594 25.8281C20.9844 26.6719 21 27.5081 20.9062 28.3369C20.8125 29.1644 20.4688 29.8906 19.875 30.5156C19.2812 31.1406 18.5625 31.5156 17.7188 31.6406C16.875 31.7656 16.0313 31.75 15.1875 31.5938C14.9375 31.5312 14.7031 31.4769 14.4844 31.4306C14.2656 31.3831 14.0781 31.4375 13.9219 31.5938C13.7344 31.7812 13.6719 32.0075 13.7344 32.2725C13.7969 32.5387 13.8594 32.7969 13.9219 33.0469C14.0469 33.8906 14.055 34.7262 13.9462 35.5537C13.8363 36.3825 13.4844 37.1094 12.8906 37.7344C12.2969 38.3594 11.5863 38.7344 10.7587 38.8594C9.93 38.9844 9.09375 38.9688 8.25 38.8125C8 38.75 7.76562 38.695 7.54688 38.6475C7.32812 38.6012 7.14062 38.6562 6.98438 38.8125C6.79688 39 6.58625 39.1406 6.3525 39.2344C6.1175 39.3281 5.875 39.375 5.625 39.375ZM11.25 20.625C8.65625 20.625 6.44563 19.7106 4.61813 17.8819C2.78938 16.0544 1.875 13.8438 1.875 11.25C1.875 8.625 2.78938 6.40625 4.61813 4.59375C6.44563 2.78125 8.65625 1.875 11.25 1.875C13.875 1.875 16.0938 2.78125 17.9062 4.59375C19.7188 6.40625 20.625 8.625 20.625 11.25C20.625 13.8438 19.7188 16.0544 17.9062 17.8819C16.0938 19.7106 13.875 20.625 11.25 20.625ZM11.25 16.875C12.8438 16.875 14.1794 16.3281 15.2569 15.2344C16.3356 14.1406 16.875 12.8125 16.875 11.25C16.875 9.65625 16.3356 8.32 15.2569 7.24125C14.1794 6.16375 12.8438 5.625 11.25 5.625C9.6875 5.625 8.35938 6.16375 7.26562 7.24125C6.17188 8.32 5.625 9.65625 5.625 11.25C5.625 12.8125 6.17188 14.1406 7.26562 15.2344C8.35938 16.3281 9.6875 16.875 11.25 16.875ZM30 43.125C28.9688 43.125 28.0863 42.7581 27.3525 42.0244C26.6175 41.2894 26.25 40.4062 26.25 39.375V30C26.25 28.9688 26.6175 28.0856 27.3525 27.3506C28.0863 26.6169 28.9688 26.25 30 26.25H39.375C40.4062 26.25 41.2894 26.6169 42.0244 27.3506C42.7581 28.0856 43.125 28.9688 43.125 30V39.375C43.125 40.4062 42.7581 41.2894 42.0244 42.0244C41.2894 42.7581 40.4062 43.125 39.375 43.125H30ZM30 39.375H39.375V30H30V39.375Z" fill="#1C1B1F"/>
</g>
</svg>
