<svg width="2109" height="2109" viewBox="0 0 2109 2109" fill="none" xmlns="http://www.w3.org/2000/svg">
<path d="M2109 1054.5C2109 1636.88 1636.88 2109 1054.5 2109C472.116 2109 0 1636.88 0 1054.5C0 472.116 472.116 0 1054.5 0C1636.88 0 2109 472.116 2109 1054.5Z" fill="#3C28B1"/>
<path d="M1578.86 1355.6C1571.74 1320.55 1553.42 1287 1529.65 1255.63C1509.37 1225.06 1491.7 1193.78 1470.73 1163.44C1400.26 1049.56 1326.92 936.419 1255.5 822.856C1238.66 785.166 1148.64 777.244 1108.19 801.084C1077.42 820.54 1118.56 851.734 1128.04 872.982C1154.9 912.943 1177.86 954.041 1204.75 994.016C1211.1 1004.05 1217.38 1014.11 1223.45 1024.23C1226.39 1029.14 1225.24 1030.45 1217.38 1030.88C1165.85 1032.36 1114.97 1038.27 1063.4 1039.44C991.938 1044.54 920.972 1048.19 849.747 1052.98C833.075 1057.25 826.769 1030.23 819.145 1022.62C801.285 996.856 785.93 970.38 768.847 944.4C753.233 921.536 738.591 898.38 723.97 875.21C707.751 850.744 690.02 826.045 688.292 798.797C674.73 719.676 743.104 640.161 853.829 611.02C985.956 573.87 1141.99 607.423 1239.04 674.705C1276.36 700.205 1306.9 731.02 1324.31 764.967C1337.83 784.744 1333.42 811.773 1359.42 826.293C1391.26 842.385 1437.95 846.04 1473.99 834.273C1508.87 823.395 1499.99 798.564 1491.33 779.079C1423.84 616.35 1161.32 516.432 919.072 528.185C784.677 533.18 647.54 574.437 575.689 654.054C521.223 712.729 514.096 788.195 547.246 852.972C555.107 868.73 563.94 884.196 578.712 897.769C591.411 918.332 604.714 938.706 618.579 958.919C684.448 1063.02 751.332 1166.85 818.022 1270.77C834.5 1290.73 841.217 1322.49 870.977 1334.55C907.431 1350.03 963.733 1352.63 996.085 1331.05C1014.96 1317.87 997.272 1302.14 989.368 1288.76C981.507 1276.29 974.013 1263.73 966.087 1251.29C937.191 1208.02 908.965 1164.58 882.466 1120.6C964.619 1114.05 1047.74 1110.41 1130.31 1104.94C1166.65 1101.68 1203.63 1100.85 1240.19 1098.48C1249.3 1099.48 1267.23 1093.42 1271.53 1100.14C1305.86 1154.28 1340.96 1208.21 1374.63 1262.56C1403.87 1304.12 1431.17 1349.17 1420.56 1396.12C1394.91 1498.51 1243.64 1528.7 1108.97 1508.46C975.05 1488.1 852.706 1432.12 778.069 1354.03C763.232 1338.94 751.915 1322.62 742.068 1305.77C724.358 1278.8 735.394 1248.46 685.399 1236.57C653.803 1229.21 616.722 1227.87 587.005 1240.06C551.674 1255.12 575.84 1283.52 582.729 1304.58C663.392 1458.96 901.946 1560.12 1135.99 1579.5C1246.93 1586.49 1366.33 1578.23 1460.26 1534.75C1545.56 1495.66 1594.33 1424.82 1578.93 1355.62L1578.86 1355.6Z" fill="white"/>
</svg>
