<svg width="34" height="34" viewBox="0 0 34 34" fill="none" xmlns="http://www.w3.org/2000/svg">
<circle cx="17" cy="17" r="17" fill="#1A1E25"/>
<path d="M12.06 12.02C12.4867 11.6733 12.8667 11.5 13.2 11.5C13.5467 11.5 14 11.7867 14.56 12.36C14.88 12.6933 15.04 13.0467 15.04 13.42C15.04 13.7933 14.7067 14.3133 14.04 14.98C13.8133 15.1667 13.5933 15.4333 13.38 15.78C13.18 16.1267 13.08 16.4467 13.08 16.74C13.08 17.98 13.5867 18.6 14.6 18.6C14.9067 18.6 15.16 18.4267 15.36 18.08C15.5733 17.7467 15.7267 17.3267 15.82 16.82C15.9133 16.3133 16.06 15.7667 16.26 15.18C16.4733 14.5933 16.72 14.0467 17 13.54C17.28 13.0333 17.72 12.6067 18.32 12.26C18.9333 11.9267 19.6667 11.76 20.52 11.76C21.6933 11.76 22.7133 12.1933 23.58 13.06C24.46 13.94 24.9 15.1333 24.9 16.64C24.9 17.44 24.7933 18.1667 24.58 18.82C24.38 19.4867 24.1733 19.9467 23.96 20.2L23.58 20.7C23.1933 21.1133 22.8667 21.32 22.6 21.32C22.3333 21.32 21.9667 21.16 21.5 20.84C20.8333 20.3867 20.5 19.92 20.5 19.44C20.5 19.16 20.6333 18.8133 20.9 18.4C20.9267 18.36 20.9933 18.28 21.1 18.16C21.2067 18.0533 21.2933 17.9533 21.36 17.86C21.5333 17.58 21.62 17.22 21.62 16.78C21.62 16.3533 21.5133 15.9933 21.3 15.7C21.1 15.42 20.8133 15.28 20.44 15.28C20.08 15.28 19.7867 15.4467 19.56 15.78C19.3333 16.1267 19.18 16.5533 19.1 17.06C19.02 17.5667 18.8933 18.12 18.72 18.72C18.56 19.32 18.36 19.8733 18.12 20.38C17.88 20.8867 17.46 21.3067 16.86 21.64C16.2733 21.9867 15.5467 22.16 14.68 22.16C13.8133 22.16 13.0467 21.9867 12.38 21.64C11.7267 21.2933 11.22 20.84 10.86 20.28C10.1533 19.2 9.8 18.0467 9.8 16.82C9.8 16.1933 9.87333 15.6 10.02 15.04C10.18 14.48 10.3733 14.0267 10.6 13.68C11.0267 12.9733 11.44 12.48 11.84 12.2L12.06 12.02Z" fill="white"/>
</svg>
